<svg id="Guide_Line" data-name="Guide Line" xmlns="http://www.w3.org/2000/svg" viewBox="0 0 512 512"><path d="M478,195a44.4,44.4,0,0,1-44.4,44.4,8.92,8.92,0,0,1-.9,0,177.63,177.63,0,0,1-349.11-.28,44.4,44.4,0,1,1-5.19-88.49,43.61,43.61,0,0,1,10.67,1.3A177.67,177.67,0,0,1,427,151.05a44.84,44.84,0,0,1,6.59-.48A44.4,44.4,0,0,1,478,195Z" style="fill:#fff;stroke:#00adee;stroke-miterlimit:10;stroke-width:14.800000699970417px"/><path d="M350.72,274.89c5.77,14.68-5.82,32.28-11,40.14-22.69,34.43-66.87,36.06-77.06,36.08-6.26,0-56.5-.68-79.91-38.87-5.35-8.73-14.75-24.08-9.63-37.35C188.91,234,334.53,233.66,350.72,274.89Z" style="fill:#00adee"/><path d="M308.46,302c3,7.69-3,16.91-5.77,21-11.88,18-35,18.89-40.36,18.9-3.28,0-29.6-.36-41.86-20.36-2.8-4.58-7.73-12.62-5-19.57C223.69,280.56,300,280.39,308.46,302Z" style="fill:#fff"/><circle cx="193.84" cy="180.17" r="22.2" style="fill:#00adee"/><circle cx="330.09" cy="180.17" r="22.2" style="fill:#00adee"/><path d="M198.29,43.59c16.78-6,76-24.21,120,1.76,0,0-6.18,68.33-51.94,80.31,0,0-52.54,13.7-33.9-20.54C248,76.72,211.06,54.31,198,47.49A2.13,2.13,0,0,1,198.29,43.59Z" style="fill:#00adee"/><path d="M68.65,481.46V433.84H84v9.67A23.25,23.25,0,0,1,91.75,435a19.78,19.78,0,0,1,10.52-2.69,21.4,21.4,0,0,1,8.22,1.49,14.47,14.47,0,0,1,5.87,4.27,14.78,14.78,0,0,1,2.69,5.84,49.19,49.19,0,0,1,.8,10.28v27.25H103V456q0-5.7-1.86-8.29t-6-2.6c-3.48,0-6,1.29-7.63,3.87s-2.41,6.76-2.41,12.54v20Z" style="fill:#00adee"/><path d="M180.52,433.84v24.33q0,8.06-1.29,11.95a17.37,17.37,0,0,1-4.36,6.91,19.72,19.72,0,0,1-7.88,4.71,35.31,35.31,0,0,1-11.08,1.56,34.87,34.87,0,0,1-11-1.56,21,21,0,0,1-8-4.71,16.26,16.26,0,0,1-4.34-6.86q-1.28-3.94-1.27-12V433.84h16v25.41c0,4,.65,6.88,2,8.65s3.46,2.67,6.42,2.67,5.13-.87,6.43-2.62,2-4.64,2-8.7V433.84Z" style="fill:#00adee"/><path d="M195.18,481.46V445.72h-7.11V433.84h7.11V419.65h16.55v14.19h7.12v11.88h-7.12v35.74Z" style="fill:#00adee"/><path d="M226.77,481.46V433.84h15.84v11.22a20.26,20.26,0,0,1,6.7-9.19,17.07,17.07,0,0,1,10.27-3.06c.66,0,1.33,0,2,.07s1.36.12,2.05.21L262,448.36a18.85,18.85,0,0,0-3-.75,17.32,17.32,0,0,0-2.82-.24q-6.13,0-9.46,3.75t-3.32,10.63v19.71Z" style="fill:#00adee"/><path d="M269.44,419a8.81,8.81,0,0,1,2.71-6.5,8.93,8.93,0,0,1,6.53-2.69,9,9,0,0,1,6.62,2.64A8.83,8.83,0,0,1,288,419a9.08,9.08,0,0,1-2.71,6.65,8.91,8.91,0,0,1-6.57,2.73,8.78,8.78,0,0,1-6.51-2.78A9.09,9.09,0,0,1,269.44,419Zm.85,62.47V433.84h16.82v47.62Z" style="fill:#00adee"/><path d="M300,481.46V408.39h16.5v46.24l17.3-20.79h20.84l-21.4,22.92,23.33,24.7H334.49l-18-21.17v21.17Z" style="fill:#00adee"/><path d="M361.46,419a8.81,8.81,0,0,1,2.71-6.5,9.44,9.44,0,0,1,13.15-.05A8.84,8.84,0,0,1,380,419a9.12,9.12,0,0,1-2.71,6.65,8.93,8.93,0,0,1-6.58,2.73,8.82,8.82,0,0,1-6.51-2.78A9.09,9.09,0,0,1,361.46,419Zm.85,62.47V433.84h16.83v47.62Z" style="fill:#00adee"/><path d="M443.25,408.39v73.07H427.79v-7.73a23,23,0,0,1-7.21,7.19,17.17,17.17,0,0,1-8.91,2.38q-10.05,0-16-6.93t-5.94-18.67q0-11.37,5.91-18.36a19.26,19.26,0,0,1,15.44-7,19.74,19.74,0,0,1,9.83,2.17,19.25,19.25,0,0,1,6.77,7.26c-.19-1.13-.33-2.41-.43-3.84s-.14-3-.14-4.64V408.39ZM428.36,457.7c0-3.71-1-6.63-2.95-8.77a11.64,11.64,0,0,0-16.05,0q-2.92,3.21-2.93,8.77t2.9,8.79a11.73,11.73,0,0,0,16.08,0C427.37,464.33,428.36,461.41,428.36,457.7Z" style="fill:#00adee"/></svg>