<svg xmlns="http://www.w3.org/2000/svg" viewBox="0 0 988.21 197.62"><defs><style>.cls-1{fill:#fff;}</style></defs><g id="Layer_2" data-name="Layer 2"><g id="Guide_Line" data-name="Guide Line"><path class="cls-1" d="M0,192.77V67.16H40.54V92.65q8.84-15.3,20.4-22.38t27.73-7.09a56.4,56.4,0,0,1,21.7,3.92,38.32,38.32,0,0,1,15.49,11.25A39,39,0,0,1,133,93.77q2.12,9.09,2.11,27.11v71.89H90.66V125.49q0-15.06-4.91-21.89T70,96.76q-13.8,0-20.15,10.2T43.53,140v52.73Z"/><path class="cls-1" d="M295.12,67.16v64.17q0,21.27-3.42,31.53a45.54,45.54,0,0,1-11.5,18.22,51.78,51.78,0,0,1-20.77,12.43q-12.44,4.11-29.23,4.11t-29-4.11a55,55,0,0,1-21.08-12.43A42.91,42.91,0,0,1,168.64,163q-3.36-10.38-3.36-31.65V67.16h42.29v67q0,15.8,5.22,22.82t16.91,7q11.82,0,17-6.9t5.16-22.95v-67Z"/><path class="cls-1" d="M333.8,192.77V98.5H315V67.16H333.8V29.72h43.65V67.16h18.78V98.5H377.45v94.27Z"/><path class="cls-1" d="M417.12,192.77V67.16h41.79v29.6q6.46-16.17,17.66-24.25t27.11-8.09c1.74,0,3.5.06,5.29.19s3.58.31,5.41.56l-4.23,40.29a48.12,48.12,0,0,0-7.83-2,47.52,47.52,0,0,0-7.47-.62q-16.17,0-24.93,9.89t-8.77,28v52Z"/><path class="cls-1" d="M529.68,28a23.27,23.27,0,0,1,7.15-17.16A24.32,24.32,0,0,1,578.55,28a24,24,0,0,1-7.15,17.54,23.52,23.52,0,0,1-17.35,7.21,23.22,23.22,0,0,1-17.16-7.34A24,24,0,0,1,529.68,28Zm2.23,164.79V67.16h44.4V192.77Z"/><path class="cls-1" d="M610.39,192.77V0h43.53V122l45.64-54.84h55L698.07,127.6l61.56,65.17H701.3l-47.38-55.84v55.84Z"/><path class="cls-1" d="M772.44,28a23.27,23.27,0,0,1,7.15-17.16,23.57,23.57,0,0,1,17.22-7.09,23.82,23.82,0,0,1,17.48,7,23.36,23.36,0,0,1,7,17.28,24,24,0,0,1-7.15,17.54,23.52,23.52,0,0,1-17.35,7.21,23.22,23.22,0,0,1-17.16-7.34A24,24,0,0,1,772.44,28Zm2.24,164.79V67.16h44.4V192.77Z"/><path class="cls-1" d="M988.21,0V192.77H947.42v-20.4q-8.46,12.69-19,19a45.18,45.18,0,0,1-23.5,6.28q-26.49,0-42.16-18.28t-15.67-49.25q0-30,15.61-48.44T903.4,63.18q15.92,0,25.93,5.72t17.84,19.15c-.49-3-.87-6.36-1.12-10.13s-.37-7.86-.37-12.25V0Zm-39.3,130.09q0-14.69-7.77-23.13t-21.2-8.46q-13.44,0-21.15,8.46t-7.71,23.13q0,14.79,7.65,23.19t21.21,8.4q13.42,0,21.2-8.46T948.91,130.09Z"/></g></g></svg>