<svg xmlns="http://www.w3.org/2000/svg" viewBox="0 0 496 522.18"><defs><style>.cls-1{fill:none;stroke:#fff;stroke-miterlimit:10;stroke-width:16px;}.cls-2,.cls-3{fill:#fff;}.cls-3{font-size:104.38px;font-family:FuturaBT-Bold, Futura Md BT;font-weight:700;}</style></defs><g id="Layer_2" data-name="Layer 2"><g id="Guide_Line" data-name="Guide Line"><path class="cls-1" d="M488,187.74a48,48,0,0,1-48,48c-.32,0-.66,0-1,0C422.3,324.69,344.18,392,250.35,392S78.22,324.53,61.62,235.41a47.38,47.38,0,0,1-5.62.33,48,48,0,0,1,0-96,47.25,47.25,0,0,1,11.54,1.41,192.07,192.07,0,0,1,365.34-.88A48,48,0,0,1,488,187.74Z"/><path class="cls-2" d="M350.4,274.14c-17.5-44.57-174.93-44.21-192,0-5.54,14.35,4.63,30.94,10.41,40.39,25.3,41.28,79.62,42,86.39,42,11,0,58.77-1.77,83.3-39C344.1,309,356.63,290,350.4,274.14Zm-51.92,52c-12.85,19.5-37.87,20.42-43.64,20.43-3.54,0-32-.39-45.25-22-3-4.95-8.36-13.64-5.45-21.16,8.94-23.16,91.4-23.34,100.57,0C308,311.75,301.41,321.71,298.48,326.17Z"/><circle class="cls-2" cx="180.8" cy="171.74" r="24"/><circle class="cls-2" cx="328.1" cy="171.74" r="24"/><path class="cls-2" d="M185.61,22.1c18.14-6.53,82.14-26.18,129.76,1.9,0,0-6.67,73.87-56.15,86.82,0,0-56.8,14.8-36.64-22.21,16.72-30.69-23.16-54.93-37.25-62.3A2.3,2.3,0,0,1,185.61,22.1Z"/><text class="cls-3" transform="translate(38.79 497.46)">nutrikid</text></g></g></svg>