<svg xmlns="http://www.w3.org/2000/svg" viewBox="0 0 489.8 395"><defs><style>.cls-1{fill:none;stroke:#fff;stroke-miterlimit:10;stroke-width:15.8px;}.cls-2{fill:#fff;}</style></defs><g id="Layer_2" data-name="Layer 2"><g id="Guide_Line" data-name="Guide Line"><path class="cls-1" d="M481.9,185.4a47.4,47.4,0,0,1-47.4,47.4c-.32,0-.65,0-1,0A189.65,189.65,0,0,1,247.22,387.1c-92.77,0-170-66.63-186.37-154.63a46.21,46.21,0,0,1-5.55.33,47.4,47.4,0,0,1,0-94.8,46.51,46.51,0,0,1,11.39,1.39,189.68,189.68,0,0,1,360.78-.87,46.54,46.54,0,0,1,7-.52A47.4,47.4,0,0,1,481.9,185.4Z"/><path class="cls-2" d="M346,270.72c-17.28-44-172.75-43.66-189.6,0C151,284.89,161,301.27,166.7,310.6c25,40.77,78.63,41.5,85.31,41.49,10.88,0,58-1.76,82.26-38.52C339.8,305.18,352.18,286.4,346,270.72Zm-51.27,51.37c-12.69,19.26-37.4,20.17-43.09,20.18-3.5,0-31.6-.38-44.69-21.74-3-4.88-8.25-13.46-5.39-20.89,8.83-22.87,90.27-23.05,99.32,0C304.13,307.86,297.64,317.69,294.75,322.09Z"/><circle class="cls-2" cx="178.54" cy="169.6" r="23.7"/><circle class="cls-2" cx="324" cy="169.6" r="23.7"/><path class="cls-2" d="M181.07,23.26c22.82-8.45,83.47-26.79,127.55-2.64a3.85,3.85,0,0,1,2,3.85c-1.61,13-11.25,71.58-54.64,82.94,0,0-56.09,14.62-36.19-21.93,15.29-28.07-21.16-47.57-38.89-55.1A3.83,3.83,0,0,1,181.07,23.26Z"/></g></g></svg>