<svg id="Guide_Line" data-name="Guide Line" xmlns="http://www.w3.org/2000/svg" viewBox="0 0 512 512"><path d="M493,255.48a47.4,47.4,0,0,1-47.4,47.4c-.32,0-.65,0-1,0A189.65,189.65,0,0,1,258.32,457.18c-92.77,0-170-66.63-186.37-154.63a46.21,46.21,0,0,1-5.55.33,47.4,47.4,0,0,1,0-94.8,46.51,46.51,0,0,1,11.39,1.39,189.68,189.68,0,0,1,360.78-.87,46.54,46.54,0,0,1,7-.52A47.4,47.4,0,0,1,493,255.48Z" style="fill:#fff;stroke:#00adee;stroke-miterlimit:10;stroke-width:15.800000429153442px"/><path d="M357.12,340.8c6.16,15.68-6.22,34.46-11.75,42.85-24.22,36.76-71.38,38.5-82.26,38.52-6.68,0-60.32-.72-85.31-41.49-5.71-9.33-15.75-25.71-10.28-39.88C184.37,297.14,339.84,296.79,357.12,340.8Z" style="fill:#00adee"/><path d="M312,369.72c3.23,8.22-3.26,18-6.15,22.45-12.69,19.26-37.4,20.17-43.09,20.18-3.5,0-31.6-.38-44.69-21.74-3-4.88-8.25-13.46-5.39-20.89C221.51,346.85,303,346.67,312,369.72Z" style="fill:#fff"/><circle cx="189.64" cy="239.68" r="23.7" style="fill:#00adee"/><circle cx="335.1" cy="239.68" r="23.7" style="fill:#00adee"/><path d="M192.17,93.34C215,84.89,275.64,66.55,319.72,90.7a3.86,3.86,0,0,1,2,3.85c-1.61,13-11.25,71.58-54.64,82.94,0,0-56.09,14.62-36.19-21.93,15.29-28.07-21.16-47.57-38.89-55.1A3.83,3.83,0,0,1,192.17,93.34Z" style="fill:#00adee"/></svg>