<svg xmlns="http://www.w3.org/2000/svg" viewBox="0 0 927.61 219.7"><defs><style>.cls-1{fill:none;stroke-width:8px;}.cls-1,.cls-3{stroke:#fff;stroke-miterlimit:10;}.cls-2,.cls-3{fill:#fff;}</style></defs><g id="Layer_2" data-name="Layer 2"><g id="Guide_Line" data-name="Guide Line"><path class="cls-1" d="M268.63,103.1a26.46,26.46,0,0,1-26.46,26.46,4.87,4.87,0,0,1-.54,0,105.87,105.87,0,0,1-208.07-.17,24.46,24.46,0,0,1-3.1.19,26.47,26.47,0,0,1,0-52.93,26.07,26.07,0,0,1,6.36.78,105.9,105.9,0,0,1,201.42-.49,26.48,26.48,0,0,1,30.39,26.18Z"/><path class="cls-2" d="M192.77,150.73c-9.65-24.56-96.45-24.37-105.86,0-3.06,7.9,2.55,17.05,5.74,22.26,14,22.75,43.89,23.18,47.64,23.18,6.06,0,32.41-1,45.91-21.51C189.29,170,196.2,159.48,192.77,150.73Zm-28.63,28.69c-7.07,10.74-20.87,11.25-24.06,11.25-1.94,0-17.63-.22-24.94-12.13-1.67-2.74-4.6-7.52-3-11.67,4.92-12.76,50.38-12.87,55.43,0C169.38,171.47,165.76,177,164.14,179.42Z"/><circle class="cls-2" cx="99.27" cy="94.27" r="13.23"/><circle class="cls-2" cx="180.47" cy="94.27" r="13.23"/><path class="cls-3" d="M95.3,13.39s47.12-19.22,78-1c0,0-3.52,42.26-30.8,49.4,0,0-31.31,8.16-20.2-12.24S95.3,13.39,95.3,13.39Z"/><path class="cls-2" d="M392,100.22a24.32,24.32,0,0,0-4.44-9.65,23.77,23.77,0,0,0-9.7-7,35,35,0,0,0-13.58-2.45c-6.76,0-12.55,1.46-17.36,4.44s-9.1,7.63-12.79,14v-16H308.71v78.67H336v-33c0-9.54,1.31-16.46,4-20.71s6.86-6.38,12.62-6.38c4.52,0,7.79,1.41,9.84,4.28s3.08,7.42,3.08,13.69v42.14H393.3v-45Q393.3,105.93,392,100.22Z"/><path class="cls-2" d="M466.44,83.55v42c0,6.7-1.09,11.51-3.24,14.38s-5.69,4.34-10.64,4.34-8.4-1.49-10.58-4.42-3.27-7.68-3.27-14.3v-42H412.23v40.2q0,13.32,2.1,19.83a27,27,0,0,0,7.15,11.33,34.54,34.54,0,0,0,13.22,7.79,58.14,58.14,0,0,0,18.18,2.58,59.07,59.07,0,0,0,18.32-2.58,32.39,32.39,0,0,0,13-7.79,28.58,28.58,0,0,0,7.2-11.41c1.44-4.28,2.13-10.87,2.13-19.75V83.55Z"/><path class="cls-2" d="M545.1,83.55V60.13H517.78V83.55H506V103.2h11.78v59H545.1v-59h11.76V83.55Z"/><path class="cls-2" d="M627.47,82c-1.12-.08-2.21-.11-3.33-.11-6.64,0-12.28,1.68-17,5.05s-8.37,8.46-11.06,15.21V83.55H569.94v78.67h27.59V129.68c0-7.58,1.81-13.45,5.48-17.57s8.88-6.2,15.6-6.2a28,28,0,0,1,4.68.4,29.85,29.85,0,0,1,4.92,1.25l2.63-25.23C629.7,82.17,628.58,82,627.47,82Z"/><path class="cls-2" d="M641.85,83.55v78.67h27.78V83.55Zm24.8-35.35a15,15,0,0,0-10.95-4.36,14.84,14.84,0,0,0-10.79,4.43A14.63,14.63,0,0,0,640.44,59,15,15,0,0,0,645,69.94a14.54,14.54,0,0,0,10.74,4.6A14.74,14.74,0,0,0,666.57,70,15.05,15.05,0,0,0,671,59,14.66,14.66,0,0,0,666.65,48.2Z"/><path class="cls-2" d="M745.9,121.41l35.36-37.86H746.83L718.25,117.9V41.5H691V162.22h27.27v-35l29.67,35h36.53Z"/><path class="cls-2" d="M793.86,83.55v78.67h27.81V83.55ZM818.67,48.2a15.61,15.61,0,0,0-21.72.07A14.63,14.63,0,0,0,792.48,59,15.07,15.07,0,0,0,797,69.94a15.12,15.12,0,0,0,21.64.08,15.05,15.05,0,0,0,4.47-11A14.6,14.6,0,0,0,818.67,48.2Z"/><path class="cls-2" d="M901,41.5V82.62c0,2.77.08,5.32.22,7.69s.4,4.46.72,6.35q-4.9-8.41-11.2-12c-4.17-2.36-9.57-3.56-16.21-3.56q-15.75,0-25.53,11.57T839.19,123q0,19.38,9.84,30.84t26.4,11.46a28.34,28.34,0,0,0,14.7-3.94,38.19,38.19,0,0,0,11.94-11.88v12.76h25.54V41.5Zm-2.84,96q-4.86,5.29-13.29,5.29t-13.27-5.27c-3.19-3.5-4.81-8.34-4.81-14.51s1.62-11,4.84-14.49,7.63-5.29,13.24-5.29,10,1.75,13.29,5.29S903,116.84,903,123,901.37,133.93,898.13,137.47Z"/></g></g></svg>