<svg id="Guide_Line" data-name="Guide Line" xmlns="http://www.w3.org/2000/svg" viewBox="0 0 1024 256"><path d="M314.83,127.71a26.46,26.46,0,0,1-26.46,26.46,4.78,4.78,0,0,1-.54,0A105.87,105.87,0,0,1,79.76,154a26.46,26.46,0,1,1-3.1-52.74A26.13,26.13,0,0,1,83,102a105.89,105.89,0,0,1,201.42-.48,25.43,25.43,0,0,1,3.93-.29A26.46,26.46,0,0,1,314.83,127.71Z" style="fill:#fff;stroke:#00adee;stroke-miterlimit:10;stroke-width:15.951163318490103px"/><path d="M239,175.34c3.44,8.76-3.47,19.24-6.56,23.93-13.52,20.52-39.86,21.49-45.93,21.5-3.73,0-33.67-.4-47.62-23.16-3.19-5.21-8.8-14.36-5.74-22.27C142.53,151,229.32,150.77,239,175.34Z" style="fill:#00adee"/><path d="M213.78,191.49c1.8,4.59-1.82,10.08-3.44,12.53-7.08,10.75-20.87,11.26-24.05,11.27-2,0-17.64-.21-24.95-12.14-1.67-2.72-4.61-7.51-3-11.66C163.26,178.72,208.73,178.62,213.78,191.49Z" style="fill:#fff"/><circle cx="145.47" cy="118.89" r="13.23" style="fill:#00adee"/><circle cx="226.67" cy="118.89" r="13.23" style="fill:#00adee"/><path d="M148.06,37.84C162.14,33.58,195.27,26,219,40c0,0-3,39.26-30.3,46.4,0,0-31.31,8.16-20.2-12.24,8.18-15-10.43-26.39-20.81-31.34A2.68,2.68,0,0,1,148.06,37.84Z" style="fill:#00adee"/><path d="M354.91,186.84V108.18h25.4v16q5.52-9.57,12.77-14t17.37-4.44A35.34,35.34,0,0,1,424,108.14a24,24,0,0,1,9.7,7,24.59,24.59,0,0,1,4.44,9.66q1.32,5.68,1.32,17v45H411.69V144.71q0-9.44-3.07-13.71t-9.86-4.29q-8.64,0-12.61,6.39t-4,20.72v33Z" style="fill:#00adee"/><path d="M539.74,108.18v40.19q0,13.32-2.14,19.74a28.43,28.43,0,0,1-7.21,11.41,32.36,32.36,0,0,1-13,7.79,58.72,58.72,0,0,1-18.31,2.57,58,58,0,0,1-18.18-2.57,34.48,34.48,0,0,1-13.21-7.79,26.88,26.88,0,0,1-7.16-11.33q-2.1-6.51-2.1-19.82V108.18h26.48v42q0,9.89,3.27,14.29t10.59,4.4q7.39,0,10.64-4.32t3.22-14.37v-42Z" style="fill:#00adee"/><path d="M564,186.84v-59H552.2V108.18H564V84.73H591.3v23.45h11.76v19.63H591.3v59Z" style="fill:#00adee"/><path d="M616.15,186.84V108.18h26.17v18.53q4-10.12,11.06-15.18t17-5.07c1.09,0,2.19,0,3.31.12s2.24.2,3.38.35l-2.64,25.24a30,30,0,0,0-4.91-1.25,29.32,29.32,0,0,0-4.67-.39q-10.14,0-15.62,6.19t-5.49,17.57v32.55Z" style="fill:#00adee"/><path d="M686.63,83.64a14.57,14.57,0,0,1,4.48-10.74,15.61,15.61,0,0,1,21.73-.08,14.6,14.6,0,0,1,4.4,10.82,15.06,15.06,0,0,1-4.47,11,14.74,14.74,0,0,1-10.87,4.51,14.57,14.57,0,0,1-10.75-4.59A15.05,15.05,0,0,1,686.63,83.64ZM688,186.84V108.18h27.8v78.66Z" style="fill:#00adee"/><path d="M737.18,186.84V66.12h27.26v76.41L793,108.18h34.42L792.09,146l38.56,40.81H794.12l-29.68-35v35Z" style="fill:#00adee"/><path d="M838.67,83.64a14.54,14.54,0,0,1,4.48-10.74,14.75,14.75,0,0,1,10.78-4.44,14.91,14.91,0,0,1,11,4.36,14.64,14.64,0,0,1,4.4,10.82,15,15,0,0,1-4.48,11,14.73,14.73,0,0,1-10.87,4.51,14.55,14.55,0,0,1-10.74-4.59A15,15,0,0,1,838.67,83.64Zm1.4,103.2V108.18h27.81v78.66Z" style="fill:#00adee"/><path d="M973.8,66.12V186.84H948.25V174.07A37.8,37.8,0,0,1,936.34,186a28.31,28.31,0,0,1-14.72,3.93q-16.59,0-26.41-11.45t-9.81-30.84q0-18.78,9.78-30.34t25.5-11.56q10,0,16.24,3.58t11.18,12a63.57,63.57,0,0,1-.7-6.34c-.16-2.37-.24-4.92-.24-7.68V66.12Zm-24.61,81.47q0-9.19-4.87-14.49T931,127.81q-8.41,0-13.24,5.29T913,147.59q0,9.27,4.79,14.52T931,167.37q8.41,0,13.28-5.29T949.19,147.59Z" style="fill:#00adee"/></svg>