<svg id="Guide_Line" data-name="Guide Line" xmlns="http://www.w3.org/2000/svg" viewBox="0 0 1024 256"><path d="M17.89,222V96.35H58.44v25.49q8.82-15.28,20.39-22.38t27.74-7.09a56.43,56.43,0,0,1,21.7,3.92,38.36,38.36,0,0,1,15.48,11.25A38.89,38.89,0,0,1,150.84,123q2.11,9.09,2.11,27.11V222H108.56V154.68q0-15.06-4.92-21.89T87.91,126q-13.8,0-20.15,10.2t-6.34,33.08V222Z" style="fill:#00adee"/><path d="M313,96.35v64.17q0,21.27-3.42,31.53a45.54,45.54,0,0,1-11.5,18.22,51.78,51.78,0,0,1-20.77,12.43q-12.44,4.11-29.22,4.11t-29-4.11A54.93,54.93,0,0,1,198,210.27a42.93,42.93,0,0,1-11.45-18.1q-3.34-10.38-3.35-31.65V96.35h42.28v67q0,15.8,5.22,22.82t16.92,7q11.8,0,17-6.9t5.16-23v-67Z" style="fill:#00adee"/><path d="M351.69,222V127.69H332.91V96.35h18.78V58.91h43.66V96.35h18.77v31.34H395.35V222Z" style="fill:#00adee"/><path d="M435,222V96.35H476.8V126q6.46-16.17,17.66-24.25t27.12-8.09c1.74,0,3.5.06,5.28.19s3.59.31,5.41.56L528,134.65A46.95,46.95,0,0,0,512.75,132q-16.17,0-24.94,9.89T479,170v52Z" style="fill:#00adee"/><path d="M547.57,57.17A23.27,23.27,0,0,1,554.72,40a23.57,23.57,0,0,1,17.22-7.09,23.82,23.82,0,0,1,17.48,7,23.36,23.36,0,0,1,7,17.28,24,24,0,0,1-7.15,17.54,23.52,23.52,0,0,1-17.35,7.21,23.22,23.22,0,0,1-17.16-7.34A24,24,0,0,1,547.57,57.17ZM549.81,222V96.35h44.4V222Z" style="fill:#00adee"/><path d="M628.28,222V29.19h43.53v122l45.64-54.84h55L716,156.79,777.52,222H719.19l-47.38-55.84V222Z" style="fill:#00adee"/><path d="M790.33,57.17A23.27,23.27,0,0,1,797.48,40a24.32,24.32,0,0,1,41.73,17.16,24,24,0,0,1-7.15,17.54,23.53,23.53,0,0,1-17.35,7.21,23.22,23.22,0,0,1-17.17-7.34A24,24,0,0,1,790.33,57.17ZM792.57,222V96.35H837V222Z" style="fill:#00adee"/><path d="M1006.11,29.19V222H965.32v-20.4q-8.46,12.69-19,19a45.25,45.25,0,0,1-23.51,6.28q-26.49,0-42.16-18.28T865,159.28q0-30,15.61-48.44t40.73-18.47q15.91,0,25.93,5.72t17.85,19.15q-.75-4.47-1.12-10.13t-.38-12.25V29.19Zm-39.3,130.09q0-14.67-7.78-23.13t-21.2-8.46q-13.43,0-21.14,8.46T909,159.28q0,14.81,7.65,23.19t21.2,8.4q13.42,0,21.2-8.46T966.81,159.28Z" style="fill:#00adee"/></svg>